<?xml version="1.0" standalone="no"?>
<!DOCTYPE svg PUBLIC "-//W3C//DTD SVG 20010904//EN"
 "http://www.w3.org/TR/2001/REC-SVG-20010904/DTD/svg10.dtd">
<svg version="1.0" xmlns="http://www.w3.org/2000/svg"
 width="250.000000pt" height="250.000000pt" viewBox="0 0 250.000000 250.000000"
 preserveAspectRatio="xMidYMid meet">
<metadata>
Created by potrace 1.11, written by Peter Selinger 2001-2013
</metadata>
<g transform="translate(0.000000,250.000000) scale(0.100000,-0.100000)"
fill="#000000" stroke="none">
<path d="M1155 2462 c-296 -30 -553 -150 -755 -352 -228 -229 -348 -509 -356
-830 -3 -146 5 -221 37 -344 165 -640 817 -1033 1454 -876 44 11 87 22 96 24
8 2 44 16 80 31 269 112 503 331 626 586 57 117 100 246 109 329 3 19 8 58 12
85 12 78 4 292 -13 355 -2 8 -6 28 -9 43 -3 16 -17 65 -31 109 -142 439 -528
767 -975 829 -76 11 -221 17 -275 11z m330 -65 c230 -52 422 -155 580 -312
178 -176 275 -354 332 -610 21 -97 25 -319 7 -425 -87 -497 -481 -889 -974
-967 -61 -10 -282 -10 -353 0 -158 22 -387 118 -518 216 -86 65 -214 201 -273
289 -182 274 -240 586 -171 923 21 104 102 291 168 388 175 260 443 437 752
500 112 23 344 22 450 -2z"/>
<path d="M1037 2339 c-223 -47 -405 -144 -558 -298 -98 -97 -160 -183 -215
-295 -83 -167 -118 -318 -117 -501 1 -154 21 -263 74 -402 163 -425 570 -706
1024 -707 237 0 452 68 640 202 191 137 342 340 414 558 75 226 73 498 -6 717
-126 355 -408 616 -771 713 -131 36 -352 42 -485 13z m413 -45 c428 -83 761
-422 845 -861 13 -71 17 -235 6 -316 -60 -448 -368 -795 -807 -908 -128 -33
-360 -33 -488 0 -260 67 -465 207 -620 425 -135 188 -197 402 -191 651 6 220
69 406 200 590 237 331 653 496 1055 419z"/>
<path d="M400 1495 l0 -215 303 -2 302 -3 0 -405 0 -405 48 -3 47 -3 0 458 0
458 -300 0 c-192 0 -301 3 -303 10 -3 9 -1 212 2 225 1 4 658 5 699 1 9 -1 12
-123 12 -576 l0 -575 150 0 150 0 0 411 0 411 273 -3 272 -3 3 217 2 217 -322
-2 -323 -3 0 -42 c0 -24 4 -44 10 -44 5 -1 125 -3 265 -4 140 -1 260 -3 265
-4 14 -1 14 -231 0 -232 -5 -1 -129 -2 -275 -3 l-265 -1 0 -405 c0 -448 5
-420 -65 -414 -19 1 -37 3 -40 3 -3 1 -5 259 -5 574 l0 572 -453 3 -452 2 0
-215z"/>
</g>
</svg>
